<?xml version="1.0" encoding="utf-8"?><!DOCTYPE svg PUBLIC "-//W3C//DTD SVG 1.1//EN" "http://www.w3.org/Graphics/SVG/1.1/DTD/svg11.dtd"><svg width="84" height="73" viewBox="0 0 84 73" xmlns="http://www.w3.org/2000/svg" xmlns:xlink="http://www.w3.org/1999/xlink"><view id="comments-black" viewBox="0 31 24 25.162"/><svg width="24" height="25.162" viewBox="0.169 0.177 24 25.162" y="31"><path d="M21.375.177H2.964A2.796 2.796 0 0 0 .169 2.972v12.904a2.795 2.795 0 0 0 2.795 2.795h3.513l-1.19 6.668 7.196-6.668h8.892a2.795 2.795 0 0 0 2.794-2.795V2.973A2.796 2.796 0 0 0 21.375.177zM5.072 3.588H3.74c-.064 0-.12-.023-.182-.037a.931.931 0 0 1 .061.299v1.301a.955.955 0 1 1-1.907 0V3.85c0-.526.427-.954.953-.954.064 0 .121.024.182.037a.958.958 0 0 1-.06-.299c0-.528.427-.953.954-.953h1.333a.953.953 0 1 1-.002 1.907z"/></svg><view id="comments-grey" viewBox="24 31 24 25.162"/><svg width="24" height="25.162" viewBox="0.169 0.177 24 25.162" x="24" y="31"><path fill="#B2BBC3" d="M21.375.177H2.964A2.796 2.796 0 0 0 .169 2.972v12.904a2.795 2.795 0 0 0 2.795 2.795h3.513l-1.19 6.668 7.196-6.668h8.892a2.795 2.795 0 0 0 2.794-2.795V2.973A2.796 2.796 0 0 0 21.375.177zM5.072 3.588H3.74c-.064 0-.12-.023-.182-.037a.931.931 0 0 1 .061.299v1.301a.955.955 0 1 1-1.907 0V3.85c0-.526.427-.954.953-.954.064 0 .121.024.182.037a.958.958 0 0 1-.06-.299c0-.528.427-.953.954-.953h1.333a.953.953 0 1 1-.002 1.907z"/></svg><view id="comments-white" viewBox="59.706 0 24 25.162"/><svg width="24" height="25.162" viewBox="0.169 0.177 24 25.162" x="59.706"><path fill="#FFF" d="M21.375.177H2.964A2.796 2.796 0 0 0 .169 2.972v12.904a2.795 2.795 0 0 0 2.795 2.795h3.513l-1.19 6.668 7.196-6.668h8.892a2.795 2.795 0 0 0 2.794-2.795V2.973A2.796 2.796 0 0 0 21.375.177zM5.072 3.588H3.74c-.064 0-.12-.023-.182-.037a.931.931 0 0 1 .061.299v1.301a.955.955 0 1 1-1.907 0V3.85c0-.526.427-.954.953-.954.064 0 .121.024.182.037a.958.958 0 0 1-.06-.299c0-.528.427-.953.954-.953h1.333a.953.953 0 1 1-.002 1.907z"/></svg><view id="like-black" viewBox="0 0 19.902 31"/><svg width="19.902" height="31" viewBox="0.383 0.597 19.902 31"><path d="M7.354 31.598l12.931-12.932h-8.322l7.611-7.611H9.752L15.103.597 1.037 16.009h7.041L.383 23.703h10.201z"/></svg><view id="like-grey" viewBox="19.902 0 19.902 31"/><svg width="19.902" height="31" viewBox="0.383 0.597 19.902 31" x="19.902"><path fill="#B2BBC3" d="M7.354 31.598l12.931-12.932h-8.322l7.611-7.611H9.752L15.103.597 1.037 16.009h7.041L.383 23.703h10.201z"/></svg><view id="like-white" viewBox="39.804 0 19.902 31"/><svg width="19.902" height="31" viewBox="0.383 0.597 19.902 31" x="39.804"><path fill="#FFF" d="M7.354 31.598l12.931-12.932h-8.322l7.611-7.611H9.752L15.103.597 1.037 16.009h7.041L.383 23.703h10.201z"/></svg><view id="see-white" viewBox="59.706 25.162 21.333 16"/><svg width="21.333" height="16" viewBox="1.293 0.97 21.333 16" x="59.706" y="25.162"><g fill="#FFF"><path d="M11.959.97c-5.89 0-10.667 8-10.667 8s4.777 8 10.667 8c5.892 0 10.666-8 10.666-8s-4.774-8-10.666-8zm0 13.335a5.333 5.333 0 1 1 0-10.667 5.333 5.333 0 0 1 0 10.667z"/><circle cx="11.959" cy="8.971" r="2.667"/></g></svg><view id="seen-black" viewBox="0 56.162 21.333 16"/><svg width="21.333" height="16" viewBox="1.292 0.97 21.333 16" y="56.162"><path d="M11.959.97c-5.891 0-10.667 8-10.667 8s4.777 8 10.667 8c5.892 0 10.666-8 10.666-8s-4.774-8-10.666-8zm0 13.335a5.333 5.333 0 1 1 0-10.667 5.333 5.333 0 0 1 0 10.667z"/><circle cx="11.959" cy="8.971" r="2.667"/></svg><view id="seen-grey" viewBox="21.333 56.162 21.333 16"/><svg width="21.333" height="16" viewBox="1.292 0.97 21.333 16" x="21.333" y="56.162"><g fill="#B2BBC3"><path d="M11.959.97c-5.891 0-10.667 8-10.667 8s4.777 8 10.667 8c5.892 0 10.666-8 10.666-8s-4.774-8-10.666-8zm0 13.335a5.333 5.333 0 1 1 0-10.667 5.333 5.333 0 0 1 0 10.667z"/><circle cx="11.959" cy="8.971" r="2.667"/></g></svg></svg>