<?xml version="1.0" encoding="utf-8"?><svg width="631" height="607" viewBox="0 0 631 607" xmlns="http://www.w3.org/2000/svg" xmlns:xlink="http://www.w3.org/1999/xlink"><svg id="18plus" viewBox="0 0 22 22" width="22" height="22"><style>.aast0{fill:#fff}</style><path class="aast0" d="M14.2 22H7.8c-.9 0-1.7-.3-2.3-.9L.9 16.5c-.6-.6-.9-1.4-.9-2.3V7.8c0-.9.3-1.7.9-2.3L5.5.9C6.1.3 6.9 0 7.8 0h6.4c.9 0 1.7.3 2.3.9l4.6 4.6c.6.6.9 1.4.9 2.3v6.4c0 .9-.3 1.7-.9 2.3l-4.6 4.6c-.6.6-1.4.9-2.3.9zM7.8 1.5c-.5 0-.9.2-1.2.5L2 6.6c-.3.3-.5.7-.5 1.2v6.4c0 .5.2.9.5 1.2L6.6 20c.3.3.8.5 1.2.5h6.4c.5 0 .9-.2 1.2-.5l4.6-4.6c.3-.3.5-.8.5-1.2V7.8c0-.5-.2-.9-.5-1.2L15.4 2c-.3-.3-.8-.5-1.2-.5H7.8z"/><path class="aast0" d="M7.6 16.3H5.5V8.2L3 9V7.3l4.4-1.6h.2v10.6zM15.4 8.5c0 .5-.1 1-.4 1.4-.3.4-.6.7-1.1 1 .5.2.9.6 1.2 1 .3.4.5.9.5 1.5 0 .9-.3 1.7-1 2.2-.6.5-1.5.8-2.6.8s-2-.3-2.6-.8c-.6-.5-1-1.3-1-2.2 0-.6.2-1.1.5-1.5.3-.4.7-.8 1.2-1-.5-.2-.8-.6-1.1-1-.2-.4-.3-.9-.3-1.4 0-.9.3-1.6.9-2.2.6-.5 1.4-.7 2.4-.7s1.8.3 2.4.8c.7.5 1 1.2 1 2.1zm-1.9 4.7c0-.5-.1-.8-.4-1.1-.3-.3-.6-.4-1.1-.4-.4 0-.8.1-1.1.4s-.4.6-.4 1.1c0 .5.1.8.4 1.1.3.3.6.4 1.1.4.5 0 .8-.1 1.1-.4.3-.2.4-.6.4-1.1zm-.2-4.6c0-.4-.1-.7-.3-1s-.6-.3-1-.3-.7.1-.9.4c-.2.2-.3.6-.3 1s.1.8.3 1c.2.2.5.3.9.3s.7-.1.9-.4c.3-.2.4-.5.4-1z"/><g><path class="aast0" d="M18.8 10.5h1.7v1.2h-1.7v1.9h-1.3v-1.9h-1.7v-1.2h1.7V8.6h1.3v1.9z"/></g></svg><svg id="arrow-black" viewBox="0 0 18 15" width="18" height="15" x="22" y="22"><style>.abst0{fill:#1d1d1b}</style><path class="abst0" d="M18 7.5L8.9 0v4.9L0 7.5l8.9 2.6V15z"/></svg><svg id="arrow-white" viewBox="0 0 18 15" width="18" height="15" x="40" y="37"><style>.acst0{fill:#fff}</style><path class="acst0" d="M18 7.5L8.9 0v4.9L0 7.5l8.9 2.6V15z"/></svg><svg id="calendar" viewBox="0 0 17 15" width="17" height="15" x="58" y="52"><style>.adst0{fill:#c1c1c1}.adst1{fill:#fff}</style><path class="adst0" d="M0 .9h17V15H0V.9zM2 0h3v.9H2V0zM12 0h3v.9h-3V0z"/><g><path class="adst1" d="M1 3.9h15v1H1v-1zM1 7.6h15v1H1v-1zM1 11.2h15v1H1v-1z"/><path class="adst1" d="M5 4h1v10H5V4zM11 4h1v10h-1V4z"/></g></svg><svg id="checkbox-off" viewBox="0 0 18 18" width="18" height="18" x="75" y="67"><style>.aest0{fill:url(#aeSVGID_1_)}.aest1{fill:#b4b4b4}</style><linearGradient id="aeSVGID_1_" gradientUnits="userSpaceOnUse" x1="9" y1="18.657" x2="9" y2="1.132" gradientTransform="matrix(1 0 0 -1 0 18.89)"><stop offset="0" stop-color="#e6e7e6"/><stop offset="1" stop-color="#d8d8d8"/></linearGradient><path class="aest0" d="M2.8.3h12.3c1.4 0 2.6 1.2 2.6 2.6v12.3c0 1.4-1.2 2.6-2.6 2.6H2.8c-1.4 0-2.6-1.2-2.6-2.6V2.8C.3 1.4 1.4.3 2.8.3z"/><path class="aest1" d="M15.2 18H2.8C1.3 18 0 16.7 0 15.2V2.8C0 1.3 1.3 0 2.8 0h12.3C16.7 0 18 1.3 18 2.8v12.3c0 1.6-1.3 2.9-2.8 2.9zM2.8.5C1.5.5.5 1.5.5 2.8v12.3c0 1.3 1 2.3 2.3 2.3h12.3c1.3 0 2.3-1 2.3-2.3V2.8c0-1.3-1-2.3-2.3-2.3H2.8z"/></svg><svg id="checkbox-on" viewBox="0 0 18 18" width="18" height="18" x="93" y="85"><style>.afst0{fill:url(#afSVGID_1_)}.afst1{fill:#b4b4b4}.afst2{fill:#333}</style><linearGradient id="afSVGID_1_" gradientUnits="userSpaceOnUse" x1="9" y1="18.657" x2="9" y2="1.132" gradientTransform="matrix(1 0 0 -1 0 18.89)"><stop offset="0" stop-color="#e6e7e6"/><stop offset="1" stop-color="#d8d8d8"/></linearGradient><path class="afst0" d="M2.8.3h12.3c1.4 0 2.6 1.2 2.6 2.6v12.3c0 1.4-1.2 2.6-2.6 2.6H2.8c-1.4 0-2.6-1.2-2.6-2.6V2.8C.3 1.4 1.4.3 2.8.3z"/><path class="afst1" d="M15.2 18H2.8C1.3 18 0 16.7 0 15.2V2.8C0 1.3 1.3 0 2.8 0h12.3C16.7 0 18 1.3 18 2.8v12.3c0 1.6-1.3 2.9-2.8 2.9zM2.8.5C1.5.5.5 1.5.5 2.8v12.3c0 1.3 1 2.3 2.3 2.3h12.3c1.3 0 2.3-1 2.3-2.3V2.8c0-1.3-1-2.3-2.3-2.3H2.8z"/><path class="afst2" d="M15.5 4.9l-2.6-2.2L6.6 10 4.9 8.1l-2.4 2.2 4.2 5 2-2.7z"/></svg><svg id="close" viewBox="0 0 6 6" width="6" height="6" x="111" y="103"><style>.agst0{fill:#fff}</style><path class="agst0" d="M5.5 0L3 2.5.5 0 0 .5 2.5 3 0 5.5l.5.5L3 3.5 5.5 6l.5-.5L3.5 3 6 .5z"/></svg><svg viewBox="0 0 12 13" width="12" height="13" id="comments-black" x="117" y="109"><path d="M10.6 0H1.4C.6 0 0 .6 0 1.4v6.7c0 .8.6 1.4 1.4 1.4h1.8L2.6 13l3.6-3.4h4.4c.8 0 1.4-.6 1.4-1.4V1.4c0-.8-.6-1.4-1.4-1.4zM2.5 1.8h-.7-.1V2.7c0 .3-.2.5-.5.5-.2-.1-.4-.4-.4-.6v-.7c0-.3.2-.5.5-.5h.1v-.2c0-.3.2-.5.5-.5h.7c.3 0 .5.2.5.5s-.4.6-.6.6z"/></svg><svg id="comments-grey" viewBox="0 0 12 14" width="12" height="14" x="129" y="122"><style>.aist0{fill:#b2bbc3}</style><path class="aist0" d="M10.6 0H1.4C.6 0 0 .6 0 1.4v6.7c0 .8.6 1.4 1.4 1.4h1.8L2.6 14l3.6-3.4h4.4c.8 0 1.4-.6 1.4-1.4V1.4c0-.8-.6-1.4-1.4-1.4zM2.5 1.8h-.7-.1V2.7c0 .3-.2.5-.5.5-.2-.1-.4-.4-.4-.6v-.7c0-.3.2-.5.5-.5h.1v-.2c0-.3.2-.5.5-.5h.7c.3 0 .5.2.5.5s-.4.6-.6.6z"/></svg><svg id="comments-white" viewBox="0 0 12 13" width="12" height="13" x="141" y="136"><style>.ajst0{fill:#fff}</style><path class="ajst0" d="M10.6 0H1.4C.6 0 0 .6 0 1.4v6.7c0 .8.6 1.4 1.4 1.4h1.8L2.6 13l3.6-3.4h4.4c.8 0 1.4-.6 1.4-1.4V1.4c0-.8-.6-1.4-1.4-1.4zM2.5 1.8h-.7-.1V2.7c0 .3-.2.5-.5.5-.2-.1-.4-.4-.4-.6v-.7c0-.3.2-.5.5-.5h.1v-.2c0-.3.2-.5.5-.5h.7c.3 0 .5.2.5.5s-.4.6-.6.6z"/></svg><svg viewBox="0 0 10 16" width="10" height="16" id="like-black" x="153" y="149"><path d="M3.5 16L10 9.3H5.8l3.8-3.9H4.7L7.4 0 .3 8h3.6L0 11.9h5.1z"/></svg><svg id="like-green" viewBox="0 0 10 16" width="10" height="16" x="163" y="165"><style>.alst0{fill:#00be00}</style><path class="alst0" d="M3.5 16L10 9.3H5.8l3.8-3.9H4.7L7.4 0 .3 8h3.6L0 11.9h5.1z"/></svg><svg id="like-grey" viewBox="0 0 10 16" width="10" height="16" x="173" y="181"><style>.amst0{fill:#b2bbc3}</style><path class="amst0" d="M3.5 16L10 9.3H5.8l3.8-3.9H4.7L7.4 0 .3 8h3.6L0 11.9h5.1z"/></svg><svg id="like-white" viewBox="0 0 10 16" width="10" height="16" x="183" y="197"><style>.anst0{fill:#fff}</style><path class="anst0" d="M3.5 16L10 9.3H5.8l3.8-3.9H4.7L7.4 0 .3 8h3.6L0 11.9h5.1z"/></svg><svg id="login" viewBox="0 0 17 17" width="17" height="17" x="193" y="213"><style>.aost0{fill:#fff}</style><path class="aost0" d="M8.5 0C3.8 0 0 3.8 0 8.5S3.8 17 8.5 17 17 13.2 17 8.5 13.2 0 8.5 0zM4.2 13.9c.3-1.3 1.1-2.5 2.3-3.1.6.4 1.2.6 2 .6.9 0 1.7-.3 2.3-.9l-.2.4c1.2.6 1.9 1.7 2.2 3-1.2.9-2.7 1.5-4.3 1.5-1.6 0-3.1-.6-4.3-1.5zm2.1-6c0-1.2 1-2.2 2.2-2.2s2.2 1 2.2 2.2-1 2.1-2.2 2.1-2.2-.9-2.2-2.1zm7.7 4.7c-.5-1.2-1.3-2.3-2.5-3 .3-.5.5-1.1.5-1.7 0-1.9-1.6-3.5-3.5-3.5S5 5.9 5 7.9c0 .6.2 1.3.5 1.8-1.1.7-2 1.7-2.5 3-.9-1.2-1.4-2.7-1.4-4.2 0-3.8 3.1-6.9 6.9-6.9 3.8 0 6.9 3.1 6.9 6.9 0 1.5-.5 3-1.4 4.1z"/></svg><svg id="photo" viewBox="0 0 21 18" width="21" height="18" x="210" y="230"><style>.apst0{fill:#b7b7b6}</style><path class="apst0" d="M14.4 10.3c0 2.1-1.8 3.9-3.9 3.9-2.2 0-3.9-1.7-3.9-3.9s1.8-3.9 3.9-3.9c2.2 0 3.9 1.8 3.9 3.9zM21 5.1v10.3c0 1.4-1.2 2.6-2.6 2.6H2.6C1.2 18 0 16.8 0 15.4V5.1c0-1.4 1.2-2.6 2.6-2.6h3.9V1.3C6.6.6 7.2 0 7.9 0h5.2c.7 0 1.3.6 1.3 1.3v1.3h3.9c1.5 0 2.7 1.1 2.7 2.5zm-5.2 5.2c0-2.8-2.4-5.1-5.2-5.1-2.9 0-5.3 2.3-5.3 5.1s2.4 5.1 5.3 5.1c2.8 0 5.2-2.3 5.2-5.1z"/></svg><svg id="radiobox-off" viewBox="0 0 18 18" width="18" height="18" x="231" y="248"><style>.aqst0{fill:url(#aqSVGID_1_)}.aqst1{fill:#b4b4b4}</style><linearGradient id="aqSVGID_1_" gradientUnits="userSpaceOnUse" x1="9" y1="1.122" x2="9" y2="18.647" gradientTransform="matrix(1 0 0 -1 0 18.89)"><stop offset="0" stop-color="#d8d8d8"/><stop offset="1" stop-color="#e6e7e6"/></linearGradient><path class="aqst0" d="M9 .3c4.8 0 8.7 3.9 8.7 8.7s-3.9 8.7-8.7 8.7C4.2 17.7.3 13.8.3 9S4.2.3 9 .3z"/><g><path class="aqst1" d="M9 18c-5 0-9-4-9-9s4-9 9-9 9 4 9 9-4 9-9 9zM9 .5C4.3.5.5 4.3.5 9s3.8 8.5 8.5 8.5 8.5-3.8 8.5-8.5S13.7.5 9 .5z"/></g></svg><svg id="radiobox-on" viewBox="0 0 18 18" width="18" height="18" x="249" y="266"><style>.arst0{fill:url(#arSVGID_1_)}.arst1{fill:#b4b4b4}.arst2{fill:#333}</style><linearGradient id="arSVGID_1_" gradientUnits="userSpaceOnUse" x1="9" y1="1.123" x2="9" y2="18.651" gradientTransform="matrix(1 0 0 -1 0 18.893)"><stop offset="0" stop-color="#d8d8d8"/><stop offset="1" stop-color="#e6e7e6"/></linearGradient><path class="arst0" d="M9 .3c4.8 0 8.7 3.9 8.7 8.7s-3.9 8.7-8.7 8.7C4.2 17.7.3 13.8.3 9S4.2.3 9 .3z"/><g><path class="arst1" d="M9 18c-5 0-9-4-9-9s4-9 9-9 9 4 9 9-4 9-9 9zM9 .5C4.3.5.5 4.3.5 9s3.8 8.5 8.5 8.5 8.5-3.8 8.5-8.5S13.7.5 9 .5z"/></g><g><path class="arst2" d="M9 4.3c2.6 0 4.7 2.1 4.7 4.7s-2.1 4.7-4.7 4.7S4.3 11.6 4.3 9 6.4 4.3 9 4.3z"/></g></svg><svg id="save" viewBox="0 0 17 9" width="17" height="9" x="267" y="284"><style>.asst0{fill:#6d6d6d}</style><path class="asst0" d="M16.7.3c-.3-.4-.8-.5-1.1-.2L13 2.4c-.2-.1-.4-.1-.7-.2h-.1c-.3-.1-.5-.1-.8-.1-1.2 0-2 .5-2.5 1h-3c-.2-.3-.6-.6-1.1-.8l.9-.8c.3-.2.2-.7-.1-1C5.3.1 4.8 0 4.5.3L2.1 2.4c-.6.3-1.6 1-1.9 2-.1.3-.2.7-.2 1.2C0 7.5 1.6 9 3.5 9 4.8 9 6 8.3 6.6 7.1c.1-.2.2-.4.2-.7.1-.3.2-.5.2-.8 0-.2-.1-.6-.1-.6H8s-.1.4-.1.6c0 .3 0 .6.1.9.1.2.1.4.2.7.7 1.1 1.9 1.8 3.2 1.8 1.9 0 3.5-1.5 3.5-3.4 0-.4-.1-.8-.2-1.2 0-.2-.2-.4-.3-.8l2.5-2.2c.2-.2.2-.7-.2-1.1zM9.4 4.8c.3-.8 1.1-1.4 2-1.4h.1c.9 0 1.6.6 1.9 1.4v.1c.1.2.1.4.1.6v.2c0 .6-.3 1.1-.8 1.5-.4.3-.9.5-1.4.5-.9 0-1.7-.6-2-1.4v-.7c0-.3 0-.5.1-.8zm-8 .2c0-.1 0-.1.1-.1.3-.8 1.1-1.4 2-1.4.9 0 1.7.6 2 1.4.1.2.1.5.1.7 0 .2 0 .5-.1.7-.3.8-1.1 1.4-2 1.4-1.2 0-2.1-.9-2.1-2.1V5z"/></svg><svg id="save-black" viewBox="0 0 17 9" width="17" height="9" x="284" y="293"><style>.atst0{fill:#000}</style><path class="atst0" d="M16.7.3c-.3-.4-.8-.5-1.1-.2L13 2.4c-.2-.1-.4-.1-.7-.2h-.1c-.3-.1-.5-.1-.8-.1-1.2 0-2 .5-2.5 1h-3c-.2-.3-.6-.6-1.1-.8l.9-.8c.3-.2.2-.7-.1-1C5.3.1 4.8 0 4.5.3L2.1 2.4c-.6.3-1.6 1-1.9 2-.1.3-.2.7-.2 1.2C0 7.5 1.6 9 3.5 9 4.8 9 6 8.3 6.6 7.1c.1-.2.2-.4.2-.7.1-.3.2-.5.2-.8 0-.2-.1-.6-.1-.6H8s-.1.4-.1.6c0 .3 0 .6.1.9.1.2.1.4.2.7.7 1.1 1.9 1.8 3.2 1.8 1.9 0 3.5-1.5 3.5-3.4 0-.4-.1-.8-.2-1.2 0-.2-.2-.4-.3-.8l2.5-2.2c.2-.2.2-.7-.2-1.1zM9.4 4.8c.3-.8 1.1-1.4 2-1.4h.1c.9 0 1.6.6 1.9 1.4v.1c.1.2.1.4.1.6v.2c0 .6-.3 1.1-.8 1.5-.4.3-.9.5-1.4.5-.9 0-1.7-.6-2-1.4v-.7c0-.3 0-.5.1-.8zm-8 .2c0-.1 0-.1.1-.1.3-.8 1.1-1.4 2-1.4.9 0 1.7.6 2 1.4.1.2.1.5.1.7 0 .2 0 .5-.1.7-.3.8-1.1 1.4-2 1.4-1.2 0-2.1-.9-2.1-2.1V5z"/></svg><svg id="save-red" viewBox="0 0 17 9" width="17" height="9" x="301" y="302"><style>.aust0{fill:#c64a1b}</style><path class="aust0" d="M16.7.3c-.3-.4-.8-.5-1.1-.2L13 2.4c-.2-.1-.4-.1-.7-.2h-.1c-.3-.1-.5-.1-.8-.1-1.2 0-2 .5-2.5 1h-3c-.2-.3-.6-.6-1.1-.8l.9-.8c.3-.2.2-.7-.1-1C5.3.1 4.8 0 4.5.3L2.1 2.4c-.6.3-1.6 1-1.9 2-.1.3-.2.7-.2 1.2C0 7.5 1.6 9 3.5 9 4.8 9 6 8.3 6.6 7.1c.1-.2.2-.4.2-.7.1-.3.2-.5.2-.8 0-.2-.1-.6-.1-.6H8s-.1.4-.1.6c0 .3 0 .6.1.9.1.2.1.4.2.7.7 1.1 1.9 1.8 3.2 1.8 1.9 0 3.5-1.5 3.5-3.4 0-.4-.1-.8-.2-1.2 0-.2-.2-.4-.3-.8l2.5-2.2c.2-.2.2-.7-.2-1.1zM9.4 4.8c.3-.8 1.1-1.4 2-1.4h.1c.9 0 1.6.6 1.9 1.4v.1c.1.2.1.4.1.6v.2c0 .6-.3 1.1-.8 1.5-.4.3-.9.5-1.4.5-.9 0-1.7-.6-2-1.4v-.7c0-.3 0-.5.1-.8zm-8 .2c0-.1 0-.1.1-.1.3-.8 1.1-1.4 2-1.4.9 0 1.7.6 2 1.4.1.2.1.5.1.7 0 .2 0 .5-.1.7-.3.8-1.1 1.4-2 1.4-1.2 0-2.1-.9-2.1-2.1V5z"/></svg><svg id="save-white" viewBox="0 0 17 9" width="17" height="9" x="318" y="311"><style>.avst0{fill:#fff}</style><path class="avst0" d="M16.7.3c-.3-.4-.8-.5-1.1-.2L13 2.4c-.2-.1-.4-.1-.7-.2h-.1c-.3-.1-.5-.1-.8-.1-1.2 0-2 .5-2.5 1h-3c-.2-.3-.6-.6-1.1-.8l.9-.8c.3-.2.2-.7-.1-1C5.3.1 4.8 0 4.5.3L2.1 2.4c-.6.3-1.6 1-1.9 2-.1.3-.2.7-.2 1.2C0 7.5 1.6 9 3.5 9 4.8 9 6 8.3 6.6 7.1c.1-.2.2-.4.2-.7.1-.3.2-.5.2-.8 0-.2-.1-.6-.1-.6H8s-.1.4-.1.6c0 .3 0 .6.1.9.1.2.1.4.2.7.7 1.1 1.9 1.8 3.2 1.8 1.9 0 3.5-1.5 3.5-3.4 0-.4-.1-.8-.2-1.2 0-.2-.2-.4-.3-.8l2.5-2.2c.2-.2.2-.7-.2-1.1zM9.4 4.8c.3-.8 1.1-1.4 2-1.4h.1c.9 0 1.6.6 1.9 1.4v.1c.1.2.1.4.1.6v.2c0 .6-.3 1.1-.8 1.5-.4.3-.9.5-1.4.5-.9 0-1.7-.6-2-1.4v-.7c0-.3 0-.5.1-.8zm-8 .2c0-.1 0-.1.1-.1.3-.8 1.1-1.4 2-1.4.9 0 1.7.6 2 1.4.1.2.1.5.1.7 0 .2 0 .5-.1.7-.3.8-1.1 1.4-2 1.4-1.2 0-2.1-.9-2.1-2.1V5z"/></svg><svg id="saved" viewBox="0 0 34 34" width="34" height="34" x="335" y="320"><style>.awst0{fill:#c64a1b}.awst1{fill:#fff}</style><path class="awst0" d="M17 0c9.4 0 17 7.6 17 17s-7.6 17-17 17S0 26.4 0 17 7.6 0 17 0z"/><path class="awst1" d="M28.2 16.7c-.2-.6-.8-1.8-1.6-2.6l-.1-.1.1-.1s1.5-2.2 1.7-2.7c.1-.4-.1-.7-.2-1-.1-.2-.4-.3-.6-.3-.4 0-.7.2-.9.5-.2.3-.4.6-.7 1.1-.1.1-.2.3-.3.4-.3.4-.6.8-.8 1.3l-.1.1h-.1c-.4-.1-.8-.1-1.2-.1-1.9 0-3.1.8-3.7 1.5h-4.8c-.7-.7-1.9-1.5-3.7-1.5-.5 0-.9.1-1.4.2l-.4.1.3-.6c.3-.5.6-1.1.7-1.4.2-.4.2-.8 0-1.1-.4-.2-.6-.4-.9-.4-.4 0-.8.3-1 .7 0 .1-.1.2-.2.3-.6 1.2-2.1 4.2-2.5 5.6-.2.6-.3 1.2-.3 1.9 0 3 2.4 5.4 5.3 5.4 2 0 3.9-1.1 4.8-3 .2-.3.3-.7.4-1 .1-.4.2-.9.2-1.4 0-.3-.1-1-.1-1v-.2h2v.2s-.1.7-.1 1c0 .5.1.9.2 1.4.1.4.2.7.4 1 .9 1.8 2.7 3 4.8 3 2.9 0 5.3-2.4 5.3-5.4-.2-.5-.3-1.2-.5-1.8zM14 19.8c-.5 1.4-1.8 2.3-3.2 2.3-1.9 0-3.4-1.6-3.4-3.5 0-.3 0-.7.1-1 0-.1.1-.2.1-.2.5-1.4 1.8-2.3 3.2-2.3 1.4 0 2.7.9 3.2 2.3.1.4.2.8.2 1.2 0 .4 0 .8-.2 1.2zm12.6-1.1v.1c-.1 1-.5 1.9-1.2 2.5-.6.5-1.4.8-2.2.8-1.4 0-2.7-.9-3.2-2.3-.1-.4-.2-.8-.2-1.2 0-.4.1-.8.2-1.2.5-1.4 1.8-2.3 3.2-2.3h.1c1.4.1 2.6.9 3.1 2.3 0 0 0 .1.1.2.1.3.1.7.1 1.1 0-.1 0-.1 0 0z"/></svg><svg id="sc2-google" viewBox="0 0 17 11" width="17" height="11" x="369" y="354"><style>.axst0{fill:#da3c2c}</style><path class="axst0" d="M10.9 4.5H5.5v2h3.1C8.2 7.9 7 8.8 5.5 8.8c-1.8 0-3.3-1.5-3.3-3.3s1.5-3.3 3.3-3.3c.9 0 1.7.3 2.3.9l1.5-1.5C8.3.6 7 0 5.5 0 2.5 0 0 2.5 0 5.5S2.5 11 5.5 11 11 8.5 11 5.5c0-.3 0-.7-.1-1zM17 4.5h-1.6V2.8H14v1.7h-1.6v1.3H14v1.6h1.4V5.8H17z"/></svg><svg id="sc2-odnoclass" viewBox="0 0 11 18" width="11" height="18" x="386" y="365"><style>.ayst0{fill:#f39747}</style><path class="ayst0" d="M10.8 9.7c-.3-.5-1-.9-1.9-.2-1.3 1-3.4 1-3.4 1s-2.1 0-3.4-1c-1-.7-1.7-.3-1.9.2-.5.9.1 1.3 1.2 2.1 1 .6 2.4.9 3.2.9l-.7.7-2.7 2.7c-.4.4-.4 1.1 0 1.5l.1.1c.2.2.5.3.7.3.3 0 .5-.1.7-.3L5.5 15l2.7 2.7c.4.4 1.1.4 1.5 0l.1-.1c.4-.4.4-1.1 0-1.5l-2.7-2.7-.7-.7c.9-.1 2.2-.3 3.2-.9 1.2-.8 1.7-1.2 1.2-2.1zM5.5 2.3c1.3 0 2.3 1 2.3 2.2s-1 2.2-2.3 2.2-2.3-1-2.3-2.2 1-2.2 2.3-2.2zm0 6.8c2.6 0 4.6-2 4.6-4.6C10.1 2 8.1 0 5.5 0S.9 2 .9 4.6c0 2.5 2 4.5 4.6 4.5z"/></svg><svg id="sc2-twiter" viewBox="0 0 17 14" width="17" height="14" x="397" y="383"><style>.azst0{fill:#63c6f1}</style><path class="azst0" d="M17 1.7c-.6.3-1.3.5-2 .6.7-.4 1.3-1.1 1.5-2-.7.4-1.4.7-2.2.9C13.7.4 12.8 0 11.8 0c-2 0-3.5 1.6-3.5 3.5 0 .3 0 .5.1.8-3-.1-5.6-1.5-7.3-3.7-.3.6-.5 1.2-.5 1.8 0 1.2.6 2.3 1.6 2.9-.6 0-1.1-.2-1.6-.4C.6 6.6 1.8 8 3.4 8.4c-.3 0-.6.1-.9.1-.2 0-.4 0-.7-.1.4 1.4 1.7 2.4 3.3 2.5-1.2.9-2.7 1.5-4.3 1.5H0c1.5 1 3.4 1.6 5.3 1.6 6.4 0 10-5.4 10-10v-.5c.6-.5 1.2-1.1 1.7-1.8z"/></svg><svg id="sc2-vk" viewBox="0 0 18 10" width="18" height="10" x="414" y="397"><style>.bast0{fill:#5b7fa5}</style><path class="bast0" d="M17.2 10h-2.4s-.5.1-1.2-.4c-.9-.6-1.7-2.2-2.4-2-.7.2-.6 1.6-.6 1.6s0 .3-.1.5c-.3.2-.6.3-.6.3H8.8s-2.4.1-4.5-2C2.1 5.7 0 1.1 0 1.1S-.1.8 0 .7C.1.5.5.5.5.5h2.6s.2 0 .4.2c.1.1.2.3.2.3s.4 1 1 1.9c1.1 1.8 1.6 2.2 1.9 2 .5-.3.4-2.6.4-2.6s0-.8-.3-1.2C6.6.8 6.2.7 6 .7c-.1 0 .1-.3.4-.5C6.9 0 7.7 0 8.7 0c.8 0 1 .1 1.3.1.9.2.6 1 .6 2.9 0 .6-.1 1.5.3 1.8.2.1.7 0 1.9-2 .6-.9 1-2.1 1-2.1s.1-.2.2-.3c.1-.1.3-.1.3-.1H17s.8-.1.9.3-.3 1.3-1.4 2.7c-1.8 2.4-2 2.1-.5 3.5 1.4 1.3 1.7 1.9 1.8 2 .6 1.1-.6 1.2-.6 1.2"/></svg><svg id="sc2_fb" viewBox="0 0 9 19" width="9" height="19" x="432" y="407"><style>.bbst0{fill:#3e5a98}</style><path class="bbst0" d="M0 6.3h1.9V4.4c0-.8 0-2.1.6-2.9C3.2.6 4 0 5.5 0 8 0 9 .4 9 .4l-.5 2.9S7.7 3 7 3s-1.4.3-1.4 1v2.2h3.1l-.3 2.9H5.5V19H1.9V9.1H0V6.3z"/></svg><svg id="sc3-fb" viewBox="0 0 9 19" width="9" height="19" x="441" y="426"><style>.bcst0{fill:#fff}</style><path class="bcst0" d="M0 6.3h1.9V4.4c0-.8 0-2.1.6-2.9C3.2.6 4 0 5.5 0 8 0 9 .4 9 .4l-.5 2.9S7.7 3 7 3s-1.4.3-1.4 1v2.2h3.1l-.3 2.9H5.5V19H1.9V9.1H0V6.3z"/></svg><svg id="sc3-google" viewBox="0 0 17 11" width="17" height="11" x="450" y="445"><style>.bdst0{fill:#fff}</style><path class="bdst0" d="M10.9 4.5H5.5v2h3.1C8.2 7.9 7 8.8 5.5 8.8c-1.8 0-3.3-1.5-3.3-3.3s1.5-3.3 3.3-3.3c.9 0 1.7.3 2.3.9l1.5-1.5C8.3.6 7 0 5.5 0 2.5 0 0 2.5 0 5.5S2.5 11 5.5 11 11 8.5 11 5.5c0-.3 0-.7-.1-1zM17 4.5h-1.6V2.8H14v1.7h-1.6v1.3H14v1.6h1.4V5.8H17z"/></svg><svg id="sc3-odnoclass" viewBox="0 0 11 18" width="11" height="18" x="467" y="456"><style>.best0{fill:#fff}</style><path class="best0" d="M10.8 9.7c-.3-.5-1-.9-1.9-.2-1.3 1-3.4 1-3.4 1s-2.1 0-3.4-1c-1-.7-1.7-.3-1.9.2-.5.9.1 1.3 1.2 2.1 1 .6 2.4.9 3.2.9l-.7.7-2.7 2.7c-.4.4-.4 1.1 0 1.5l.1.1c.2.2.5.3.7.3.3 0 .5-.1.7-.3L5.5 15l2.7 2.7c.4.4 1.1.4 1.5 0l.1-.1c.4-.4.4-1.1 0-1.5l-2.7-2.7-.7-.7c.9-.1 2.2-.3 3.2-.9 1.2-.8 1.7-1.2 1.2-2.1zM5.5 2.3c1.3 0 2.3 1 2.3 2.2 0 1.2-1 2.2-2.3 2.2-1.3 0-2.3-1-2.3-2.2 0-1.2 1-2.2 2.3-2.2zm0 6.8c2.6 0 4.6-2 4.6-4.6C10.1 2 8.1 0 5.5 0S.9 2 .9 4.6c0 2.5 2 4.5 4.6 4.5z"/></svg><svg id="sc3-twiter" viewBox="0 0 17 14" width="17" height="14" x="478" y="474"><style>.bfst0{fill:#fff}</style><path class="bfst0" d="M17 1.7c-.6.3-1.3.5-2 .6.7-.4 1.3-1.1 1.5-2-.7.4-1.4.7-2.2.9C13.7.4 12.8 0 11.8 0c-2 0-3.5 1.6-3.5 3.5 0 .3 0 .5.1.8-3-.1-5.6-1.5-7.3-3.7-.3.6-.5 1.2-.5 1.8 0 1.2.6 2.3 1.6 2.9-.6 0-1.1-.2-1.6-.4C.6 6.6 1.8 8 3.4 8.4c-.3 0-.6.1-.9.1-.2 0-.4 0-.7-.1.4 1.4 1.7 2.4 3.3 2.5-1.2.9-2.7 1.5-4.3 1.5H0c1.5 1 3.4 1.6 5.3 1.6 6.4 0 10-5.4 10-10v-.5c.6-.5 1.2-1.1 1.7-1.8z"/></svg><svg id="sc3-vk" viewBox="0 0 18 10" width="18" height="10" x="495" y="488"><style>.bgst0{fill:#fff}</style><path class="bgst0" d="M17.2 10h-2.4s-.5.1-1.2-.4c-.9-.6-1.7-2.2-2.4-2-.7.2-.6 1.6-.6 1.6s0 .3-.1.5c-.3.2-.6.3-.6.3H8.8s-2.4.1-4.5-2C2.1 5.7 0 1.1 0 1.1S-.1.8 0 .7C.1.5.5.5.5.5h2.6s.2 0 .4.2c.1.1.2.3.2.3s.4 1 1 1.9c1.1 1.8 1.6 2.2 1.9 2 .5-.3.4-2.6.4-2.6s0-.8-.3-1.2C6.6.8 6.2.7 6 .7c-.1 0 .1-.3.4-.5C6.9 0 7.7 0 8.7 0c.8 0 1 .1 1.3.1.9.2.6 1 .6 2.9 0 .6-.1 1.5.3 1.8.2.1.7 0 1.9-2 .6-.9 1-2.1 1-2.1s.1-.2.2-.3c.1-.1.3-.1.3-.1H17s.8-.1.9.3c.1.4-.3 1.3-1.4 2.7-1.8 2.4-2 2.1-.5 3.5 1.4 1.3 1.7 1.9 1.8 2 .6 1.1-.6 1.2-.6 1.2"/></svg><svg id="search-grey" viewBox="0 0 18 18" width="18" height="18" x="513" y="498"><style>.bhst0{fill:#9b9b9b}</style><path class="bhst0" d="M18 16.5l-4.7-4.7c.9-1.2 1.5-2.7 1.5-4.4 0-4.1-3.3-7.4-7.4-7.4C3.3 0 0 3.3 0 7.4c0 4.1 3.3 7.4 7.4 7.4 1.6 0 3.2-.5 4.4-1.5l4.6 4.6H18v-1.4zM7.4 12.6c-2.9 0-5.2-2.3-5.2-5.2 0-2.9 2.3-5.2 5.2-5.2 2.9 0 5.2 2.3 5.2 5.2 0 2.9-2.4 5.2-5.2 5.2z"/></svg><svg id="search-white" viewBox="0 0 20 20" width="20" height="20" x="531" y="516"><style>.bist0{fill:#fff}</style><path class="bist0" d="M20 18.3l-5.2-5.2c1-1.4 1.6-3 1.6-4.9 0-4.5-3.7-8.2-8.2-8.2C3.7 0 0 3.7 0 8.2c0 4.5 3.7 8.2 8.2 8.2 1.8 0 3.5-.6 4.9-1.6l5.2 5.2h1.8l-.1-1.7zM8.2 14C5 14 2.4 11.4 2.4 8.2 2.4 5 5 2.4 8.2 2.4 11.4 2.4 14 5 14 8.2c0 3.2-2.6 5.8-5.8 5.8z"/></svg><svg viewBox="0 0 11 8" width="11" height="8" id="seen-black" x="551" y="536"><path d="M5.5 0C2.5 0 0 4 0 4s2.5 4 5.5 4S11 4 11 4 8.5 0 5.5 0zm0 6.7C4 6.7 2.8 5.5 2.8 4c0-1.5 1.2-2.7 2.7-2.7S8.3 2.5 8.3 4 7 6.7 5.5 6.7z"/><ellipse cx="5.5" cy="4" rx="1.4" ry="1.3"/></svg><svg id="seen-grey" viewBox="0 0 11 8" width="11" height="8" x="562" y="544"><style>.bkst0{fill:#b2bbc3}</style><path class="bkst0" d="M5.3 0C2.4 0 0 4 0 4s2.4 4 5.3 4 5.3-4 5.3-4-2.3-4-5.3-4zm0 6.7C3.9 6.7 2.7 5.5 2.7 4c0-1.5 1.2-2.7 2.7-2.7S8 2.5 8 4 6.8 6.7 5.3 6.7z"/><circle class="bkst0" cx="5.3" cy="4" r="1.3"/></svg><svg id="seen-white" viewBox="0 0 11 8" width="11" height="8" x="573" y="552"><style>.blst0{fill:#fff}</style><path class="blst0" d="M5.5 0C2.5 0 0 4 0 4s2.5 4 5.5 4S11 4 11 4 8.5 0 5.5 0zm0 6.7C4 6.7 2.8 5.5 2.8 4c0-1.5 1.2-2.7 2.7-2.7C7 1.3 8.3 2.5 8.3 4S7 6.7 5.5 6.7z"/><ellipse class="blst0" cx="5.5" cy="4" rx="1.4" ry="1.3"/></svg><svg viewBox="0 0 24 24" width="24" height="24" id="share" x="584" y="560"><circle cx="18" cy="5" r="3"/><circle cx="18" cy="19" r="3"/><circle cx="6" cy="12" r="3"/><path fill="none" stroke="#000" stroke-width="2" stroke-miterlimit="10" d="M18 5L6 12l12 7"/></svg><svg id="video" viewBox="0 0 23 23" width="23" height="23" x="608" y="584"><style>.bnst0{fill:#ffd051}</style><path class="bnst0" d="M0 0h23v23H0V0z"/><path d="M8 5.7l9.3 5.8L8 17.2V5.7z"/></svg></svg>