<?xml version="1.0" encoding="utf-8"?>
<!-- Generator: Adobe Illustrator 20.1.0, SVG Export Plug-In . SVG Version: 6.00 Build 0)  -->
<svg version="1.1" id="Слой_1" xmlns="http://www.w3.org/2000/svg" xmlns:xlink="http://www.w3.org/1999/xlink" x="0px" y="0px"
	 viewBox="0 0 22 22" style="enable-background:new 0 0 22 22;" xml:space="preserve">
<style type="text/css">
	.st0{fill:#FFFFFF;}
</style>
<g>
	<path class="st0" d="M14.2,22H7.8c-0.9,0-1.7-0.3-2.3-0.9l-4.6-4.6C0.3,15.9,0,15.1,0,14.2V7.8c0-0.9,0.3-1.7,0.9-2.3l4.6-4.6
		C6.1,0.3,6.9,0,7.8,0h6.4c0.9,0,1.7,0.3,2.3,0.9l4.6,4.6C21.7,6.1,22,6.9,22,7.8v6.4c0,0.9-0.3,1.7-0.9,2.3l-4.6,4.6
		C15.9,21.7,15.1,22,14.2,22z M7.8,1.5C7.3,1.5,6.9,1.7,6.6,2L2,6.6C1.7,6.9,1.5,7.3,1.5,7.8v6.4c0,0.5,0.2,0.9,0.5,1.2L6.6,20
		c0.3,0.3,0.8,0.5,1.2,0.5h6.4c0.5,0,0.9-0.2,1.2-0.5l4.6-4.6c0.3-0.3,0.5-0.8,0.5-1.2V7.8c0-0.5-0.2-0.9-0.5-1.2L15.4,2
		c-0.3-0.3-0.8-0.5-1.2-0.5H7.8z"/>
	<g>
		<path class="st0" d="M7.6,16.3H5.5V8.2L3,9V7.3l4.4-1.6h0.2V16.3z"/>
		<path class="st0" d="M15.4,8.5c0,0.5-0.1,1-0.4,1.4c-0.3,0.4-0.6,0.7-1.1,1c0.5,0.2,0.9,0.6,1.2,1c0.3,0.4,0.5,0.9,0.5,1.5
			c0,0.9-0.3,1.7-1,2.2c-0.6,0.5-1.5,0.8-2.6,0.8s-2-0.3-2.6-0.8c-0.6-0.5-1-1.3-1-2.2c0-0.6,0.2-1.1,0.5-1.5c0.3-0.4,0.7-0.8,1.2-1
			c-0.5-0.2-0.8-0.6-1.1-1C8.8,9.5,8.7,9,8.7,8.5c0-0.9,0.3-1.6,0.9-2.2C10.2,5.8,11,5.6,12,5.6c1,0,1.8,0.3,2.4,0.8
			C15.1,6.9,15.4,7.6,15.4,8.5z M13.5,13.2c0-0.5-0.1-0.8-0.4-1.1c-0.3-0.3-0.6-0.4-1.1-0.4c-0.4,0-0.8,0.1-1.1,0.4
			s-0.4,0.6-0.4,1.1c0,0.5,0.1,0.8,0.4,1.1c0.3,0.3,0.6,0.4,1.1,0.4c0.5,0,0.8-0.1,1.1-0.4C13.4,14.1,13.5,13.7,13.5,13.2z
			 M13.3,8.6c0-0.4-0.1-0.7-0.3-1S12.4,7.3,12,7.3c-0.4,0-0.7,0.1-0.9,0.4c-0.2,0.2-0.3,0.6-0.3,1c0,0.4,0.1,0.8,0.3,1
			C11.3,9.9,11.6,10,12,10c0.4,0,0.7-0.1,0.9-0.4C13.2,9.4,13.3,9.1,13.3,8.6z"/>
	</g>
	<g>
		<path class="st0" d="M18.8,10.5h1.7v1.2h-1.7v1.9h-1.3v-1.9h-1.7v-1.2h1.7V8.6h1.3C18.8,8.6,18.8,10.5,18.8,10.5z"/>
	</g>
</g>
</svg>
