<?xml version="1.0" encoding="utf-8"?>
<!-- Generator: Adobe Illustrator 21.0.0, SVG Export Plug-In . SVG Version: 6.00 Build 0)  -->
<svg version="1.1" id="Слой_1" xmlns="http://www.w3.org/2000/svg" xmlns:xlink="http://www.w3.org/1999/xlink" x="0px" y="0px"
	 width="22px" height="22px" viewBox="0 0 22 22" style="enable-background:new 0 0 22 22;" xml:space="preserve">
<style type="text/css">
	.st0{fill:#FFFFFF;}
</style>
<g>
	<path class="st0" d="M14.2,6h-1.5c-0.6,0-0.9,0.1-0.9,0.6v0.5c0,0.5,0.3,0.6,0.9,0.6H13c0.2,0,0.3,0.1,0.3,0.4v7.2
		c0,0.6,0.1,0.9,0.6,0.9h0.6c0.5,0,0.6-0.3,0.6-0.9V6.6C15,6.1,14.7,6,14.2,6z"/>
	<path class="st0" d="M17.1,1c-0.6-0.6-1.5-1-2.4-1H7.3c-1,0-1.8,0.3-2.4,1L0.9,4.9C0.3,5.5,0,6.3,0,7.2v7.5c0,1,0.3,1.8,1,2.5
		l3.7,3.7c0.7,0.7,1.5,1.1,2.6,1h7.3c1,0,1.8-0.3,2.6-1l3.7-3.7c0.7-0.7,1-1.5,1-2.5V7.2c0-0.9-0.3-1.7-0.9-2.3L17.1,1z M20.6,9.8
		c0,0.2-0.1,0.4-0.3,0.4h-1.1V9.4c0-0.6-0.1-0.9-0.6-0.9H18c-0.5,0-0.6,0.3-0.6,0.9v0.8h-0.8c-0.6,0-0.9,0.1-0.9,0.6v0.5
		c0,0.5,0.3,0.6,0.9,0.6h0.8v0.8c0,0.6,0.1,0.9,0.6,0.9h0.5c0.5,0,0.6-0.3,0.6-0.9v-0.8h1.1c0.2,0,0.3,0.1,0.3,0.3v2.5
		c0,0.6-0.2,1.1-0.6,1.5l-3.7,3.7c-0.4,0.4-0.9,0.6-1.5,0.6H7.3c-0.6,0-1.1-0.2-1.5-0.6l-3.7-3.7c-0.4-0.4-0.6-0.9-0.6-1.5V7.4
		c0-0.6,0.2-1.1,0.6-1.6l3.8-3.8c0.4-0.4,0.9-0.5,1.4-0.5h7.4c0.5,0,1,0.1,1.4,0.5l3.8,3.8c0.4,0.4,0.6,1,0.6,1.6V9.8z"/>
	<g>
		<path class="st0" d="M10.5,9.1c0-2.3-0.2-3.4-3-3.4c-1.9,0-2.8,0.4-2.8,2.5c0,0.4,0.2,0.6,0.6,0.6h0.4c0.4,0,0.6-0.1,0.6-0.4
			c0-0.8,0.3-0.9,1.1-0.9c0.8,0,1.3,0.1,1.3,1.3c0,1.8-1.3,1.9-2.6,2.4c-1.4,0.6-1.6,1.7-1.6,3.2v1c0,0.7,0.3,0.8,0.9,0.8h4
			c0.6,0,0.9-0.1,0.9-0.6V15c0-0.5-0.3-0.6-0.9-0.6H6.6c-0.2,0-0.3-0.1-0.3-0.4v-0.5C6.3,11.7,10.5,12.8,10.5,9.1z"/>
	</g>
</g>
</svg>
