<?xml version="1.0" encoding="utf-8"?>
<!-- Generator: Adobe Illustrator 20.1.0, SVG Export Plug-In . SVG Version: 6.00 Build 0)  -->
<svg version="1.1" id="Слой_1" xmlns="http://www.w3.org/2000/svg" xmlns:xlink="http://www.w3.org/1999/xlink" x="0px" y="0px"
	 viewBox="0 0 18 18" style="enable-background:new 0 0 18 18;" xml:space="preserve">
<style type="text/css">
	.st0{fill:url(#SVGID_1_);}
	.st1{fill:#B4B4B4;}
	.st2{fill:#333333;}
</style>
<g>
	<g>
		
			<linearGradient id="SVGID_1_" gradientUnits="userSpaceOnUse" x1="9" y1="18.6572" x2="9" y2="1.1318" gradientTransform="matrix(1 0 0 -1 0 18.89)">
			<stop  offset="0" style="stop-color:#E6E7E6"/>
			<stop  offset="1" style="stop-color:#D8D8D8"/>
		</linearGradient>
		<path class="st0" d="M2.8,0.3h12.3c1.4,0,2.6,1.2,2.6,2.6v12.3c0,1.4-1.2,2.6-2.6,2.6H2.8c-1.4,0-2.6-1.2-2.6-2.6V2.8
			C0.3,1.4,1.4,0.3,2.8,0.3z"/>
		<path class="st1" d="M15.2,18H2.8C1.3,18,0,16.7,0,15.2V2.8C0,1.3,1.3,0,2.8,0h12.3C16.7,0,18,1.3,18,2.8v12.3
			C18,16.7,16.7,18,15.2,18z M2.8,0.5c-1.3,0-2.3,1-2.3,2.3v12.3c0,1.3,1,2.3,2.3,2.3h12.3c1.3,0,2.3-1,2.3-2.3V2.8
			c0-1.3-1-2.3-2.3-2.3H2.8z"/>
	</g>
</g>
<polygon class="st2" points="15.5,4.9 12.9,2.7 6.6,10 4.9,8.1 2.5,10.3 6.7,15.3 8.7,12.6 "/>
</svg>
