<?xml version="1.0" encoding="utf-8"?>
<!-- Generator: Adobe Illustrator 16.0.3, SVG Export Plug-In . SVG Version: 6.00 Build 0)  -->
<!DOCTYPE svg PUBLIC "-//W3C//DTD SVG 1.1//EN" "http://www.w3.org/Graphics/SVG/1.1/DTD/svg11.dtd">
<svg version="1.1" id="Слой_2" xmlns="http://www.w3.org/2000/svg" xmlns:xlink="http://www.w3.org/1999/xlink" x="0px" y="0px"
	 width="24px" height="25.162px" viewBox="0.169 0.177 24 25.162" enable-background="new 0.169 0.177 24 25.162"
	 xml:space="preserve">
<path fill="#B2BBC3" d="M21.375,0.177H2.964c-1.543,0-2.795,1.252-2.795,2.795v12.904c0,1.544,1.251,2.795,2.795,2.795h3.513
	l-1.19,6.668l7.196-6.668h8.892c1.542,0,2.794-1.251,2.794-2.795V2.973C24.169,1.429,22.917,0.177,21.375,0.177z M5.072,3.588H3.74
	c-0.064,0-0.12-0.023-0.182-0.037C3.59,3.647,3.619,3.743,3.619,3.85v1.301c0,0.527-0.427,0.955-0.954,0.955
	c-0.526,0-0.953-0.428-0.953-0.955V3.85c0-0.526,0.427-0.954,0.953-0.954c0.064,0,0.121,0.024,0.182,0.037
	c-0.031-0.096-0.06-0.192-0.06-0.299c0-0.528,0.427-0.953,0.954-0.953h1.333c0.525,0,0.952,0.426,0.952,0.953
	C6.026,3.161,5.597,3.588,5.072,3.588z"/>
</svg>
