<?xml version="1.0" encoding="utf-8"?>
<!-- Generator: Adobe Illustrator 20.1.0, SVG Export Plug-In . SVG Version: 6.00 Build 0)  -->
<svg version="1.1" id="Слой_2" xmlns="http://www.w3.org/2000/svg" xmlns:xlink="http://www.w3.org/1999/xlink" x="0px" y="0px"
	 viewBox="0 0 12 13" style="enable-background:new 0 0 12 13;" xml:space="preserve">
<path d="M10.6,0H1.4C0.6,0,0,0.6,0,1.4v6.7c0,0.8,0.6,1.4,1.4,1.4h1.8L2.6,13l3.6-3.4h4.4c0.8,0,1.4-0.6,1.4-1.4V1.4
	C12,0.6,11.4,0,10.6,0z M2.5,1.8H1.8c0,0-0.1,0-0.1,0c0,0,0,0.1,0,0.2v0.7c0,0.3-0.2,0.5-0.5,0.5C1,3.1,0.8,2.8,0.8,2.6V1.9
	c0-0.3,0.2-0.5,0.5-0.5c0,0,0.1,0,0.1,0c0,0,0-0.1,0-0.2c0-0.3,0.2-0.5,0.5-0.5h0.7c0.3,0,0.5,0.2,0.5,0.5S2.7,1.8,2.5,1.8z"/>
</svg>
