<svg xmlns="http://www.w3.org/2000/svg" width="14" height="11">
    <path fill="#C2C2C2" fill-rule="evenodd" d="M12.193 11H1.806c-.998 0-1.807-.795-1.807-1.777V3.134c0-.982.809-1.778 1.807-1.778h2.578L4.67.312c0-.174.141-.315.313-.315h4.033c.172 0 .312.141.312.315l.287 1.044h2.578c.998 0 1.807.796 1.807 1.778v6.089c0 .982-.809 1.777-1.807 1.777zM6.999 2.981c-1.765 0-3.201 1.449-3.201 3.23s1.436 3.23 3.201 3.23c1.766 0 3.201-1.449 3.201-3.23s-1.435-3.23-3.201-3.23zm0 5.347a2.11 2.11 0 0 1-2.098-2.117 2.11 2.11 0 0 1 2.098-2.117 2.11 2.11 0 0 1 2.099 2.117 2.11 2.11 0 0 1-2.099 2.117z"/>
</svg>
