<?xml version="1.0" encoding="utf-8"?>
<!-- Generator: Adobe Illustrator 21.0.0, SVG Export Plug-In . SVG Version: 6.00 Build 0)  -->
<svg version="1.1" id="Слой_1" xmlns="http://www.w3.org/2000/svg" xmlns:xlink="http://www.w3.org/1999/xlink" x="0px" y="0px"
	 width="11px" height="16px" viewBox="0 0 11 16" style="enable-background:new 0 0 11 16;" xml:space="preserve">
<style type="text/css">
	.st0{fill:#C61600;}
</style>
<path id="ic_hot" class="st0" d="M2.9,0c0,0,2.9,1.8,0,5.4c-2.6,3.3-4.2,6.8-1.3,9.4c0.8,0.7,1.8,1.1,2.9,1.2c0-0.2,0.2-1,0.1-1.1
	c-1.4-0.6-2.8-1-1.5-3.3c0.9-1.6,3.1-3.4,2.4-5.5C6.6,7.6,6.8,9.7,6,11.5c-0.6,1.5,2.1,1.6,1.4,0c-0.4-0.9,2.2,1.3-0.4,3.4
	c-0.1,0.1,0.3,0.8,0.3,0.9c1.4-1,2.5-2.4,3.2-4C12,8,10.1,1.9,2.9,0z"/>
</svg>
