<?xml version="1.0" encoding="utf-8"?>
<!-- Generator: Adobe Illustrator 20.1.0, SVG Export Plug-In . SVG Version: 6.00 Build 0)  -->
<svg version="1.1" id="Слой_1" xmlns="http://www.w3.org/2000/svg" xmlns:xlink="http://www.w3.org/1999/xlink" x="0px" y="0px"
	 viewBox="0 0 17 17" style="enable-background:new 0 0 17 17;" xml:space="preserve">
<style type="text/css">
	.st0{fill:#FFFFFF;}
</style>
<path class="st0" d="M8.5,0C3.8,0,0,3.8,0,8.5S3.8,17,8.5,17c4.7,0,8.5-3.8,8.5-8.5S13.2,0,8.5,0z M4.2,13.9
	c0.3-1.3,1.1-2.5,2.3-3.1c0.6,0.4,1.2,0.6,2,0.6c0.9,0,1.7-0.3,2.3-0.9l-0.2,0.4c1.2,0.6,1.9,1.7,2.2,3c-1.2,0.9-2.7,1.5-4.3,1.5
	C6.9,15.4,5.4,14.8,4.2,13.9z M6.3,7.9c0-1.2,1-2.2,2.2-2.2s2.2,1,2.2,2.2S9.7,10,8.5,10S6.3,9.1,6.3,7.9z M14,12.6
	c-0.5-1.2-1.3-2.3-2.5-3C11.8,9.1,12,8.5,12,7.9c0-1.9-1.6-3.5-3.5-3.5S5,5.9,5,7.9c0,0.6,0.2,1.3,0.5,1.8c-1.1,0.7-2,1.7-2.5,3
	C2.1,11.5,1.6,10,1.6,8.5c0-3.8,3.1-6.9,6.9-6.9c3.8,0,6.9,3.1,6.9,6.9C15.4,10,14.9,11.5,14,12.6z"/>
</svg>
