<?xml version="1.0" encoding="utf-8"?>
<!-- Generator: Adobe Illustrator 20.1.0, SVG Export Plug-In . SVG Version: 6.00 Build 0)  -->
<svg version="1.1" id="Слой_1" xmlns="http://www.w3.org/2000/svg" xmlns:xlink="http://www.w3.org/1999/xlink" x="0px" y="0px"
	 viewBox="0 0 21 18" style="enable-background:new 0 0 21 18;" xml:space="preserve">
<style type="text/css">
	.st0{fill:#B7B7B6;}
</style>
<path class="st0" d="M14.4,10.3c0,2.1-1.8,3.9-3.9,3.9c-2.2,0-3.9-1.7-3.9-3.9s1.8-3.9,3.9-3.9C12.7,6.4,14.4,8.2,14.4,10.3z
	 M21,5.1v10.3c0,1.4-1.2,2.6-2.6,2.6H2.6C1.2,18,0,16.8,0,15.4V5.1c0-1.4,1.2-2.6,2.6-2.6h3.9V1.3C6.6,0.6,7.2,0,7.9,0h5.2
	c0.7,0,1.3,0.6,1.3,1.3v1.3h3.9C19.8,2.6,21,3.7,21,5.1z M15.8,10.3c0-2.8-2.4-5.1-5.2-5.1c-2.9,0-5.3,2.3-5.3,5.1
	c0,2.8,2.4,5.1,5.3,5.1C13.4,15.4,15.8,13.1,15.8,10.3z"/>
</svg>
