<?xml version="1.0" encoding="utf-8"?>
<!-- Generator: Adobe Illustrator 20.1.0, SVG Export Plug-In . SVG Version: 6.00 Build 0)  -->
<svg version="1.1" id="Слой_1" xmlns="http://www.w3.org/2000/svg" xmlns:xlink="http://www.w3.org/1999/xlink" x="0px" y="0px"
	 viewBox="0 0 18 18" style="enable-background:new 0 0 18 18;" xml:space="preserve">
<style type="text/css">
	.st0{fill:url(#SVGID_1_);}
	.st1{fill:#B4B4B4;}
	.st2{fill:#333333;}
</style>
<g>
	<g>
		
			<linearGradient id="SVGID_1_" gradientUnits="userSpaceOnUse" x1="9" y1="1.1225" x2="9" y2="18.6506" gradientTransform="matrix(1 0 0 -1 0 18.893)">
			<stop  offset="0" style="stop-color:#D8D8D8"/>
			<stop  offset="1" style="stop-color:#E6E7E6"/>
		</linearGradient>
		<path class="st0" d="M9,0.3c4.8,0,8.7,3.9,8.7,8.7s-3.9,8.7-8.7,8.7c-4.8,0-8.7-3.9-8.7-8.7S4.2,0.3,9,0.3z"/>
	</g>
	<g>
		<path class="st1" d="M9,18c-5,0-9-4-9-9c0-5,4-9,9-9s9,4,9,9C18,14,14,18,9,18z M9,0.5C4.3,0.5,0.5,4.3,0.5,9
			c0,4.7,3.8,8.5,8.5,8.5c4.7,0,8.5-3.8,8.5-8.5C17.5,4.3,13.7,0.5,9,0.5z"/>
	</g>
</g>
<g>
	<g>
		<path class="st2" d="M9,4.3c2.6,0,4.7,2.1,4.7,4.7c0,2.6-2.1,4.7-4.7,4.7S4.3,11.6,4.3,9S6.4,4.3,9,4.3z"/>
	</g>
</g>
</svg>
