<?xml version="1.0" encoding="utf-8"?>
<!-- Generator: Adobe Illustrator 20.1.0, SVG Export Plug-In . SVG Version: 6.00 Build 0)  -->
<svg version="1.1" id="Слой_1" xmlns="http://www.w3.org/2000/svg" xmlns:xlink="http://www.w3.org/1999/xlink" x="0px" y="0px"
	 viewBox="0 0 34 34" style="enable-background:new 0 0 34 34;" xml:space="preserve">
<style type="text/css">
	.st0{fill:#C64A1B;}
	.st1{fill:#FFFFFF;}
</style>
<g>
	<path class="st0" d="M17,0c9.4,0,17,7.6,17,17s-7.6,17-17,17S0,26.4,0,17S7.6,0,17,0z"/>
</g>
<path class="st1" d="M28.2,16.7L28.2,16.7c-0.2-0.6-0.8-1.8-1.6-2.6L26.5,14l0.1-0.1c0,0,1.5-2.2,1.7-2.7c0.1-0.4-0.1-0.7-0.2-1
	c-0.1-0.2-0.4-0.3-0.6-0.3c-0.4,0-0.7,0.2-0.9,0.5c-0.2,0.3-0.4,0.6-0.7,1.1c-0.1,0.1-0.2,0.3-0.3,0.4c-0.3,0.4-0.6,0.8-0.8,1.3
	l-0.1,0.1l-0.1,0c0,0,0,0,0,0c-0.4-0.1-0.8-0.1-1.2-0.1c-1.9,0-3.1,0.8-3.7,1.5l0,0h-4.8l0,0c-0.7-0.7-1.9-1.5-3.7-1.5
	c-0.5,0-0.9,0.1-1.4,0.2l-0.4,0.1l0.3-0.6c0.3-0.5,0.6-1.1,0.7-1.4c0.2-0.4,0.2-0.8,0-1.1C10,10.2,9.8,10,9.5,10
	c-0.4,0-0.8,0.3-1,0.7c0,0.1-0.1,0.2-0.2,0.3c-0.6,1.2-2.1,4.2-2.5,5.6l0,0c-0.2,0.6-0.3,1.2-0.3,1.9c0,3,2.4,5.4,5.3,5.4
	c2,0,3.9-1.1,4.8-3c0.2-0.3,0.3-0.7,0.4-1c0.1-0.4,0.2-0.9,0.2-1.4c0-0.3-0.1-1-0.1-1l0-0.2h2l0,0.2c0,0-0.1,0.7-0.1,1
	c0,0.5,0.1,0.9,0.2,1.4c0.1,0.4,0.2,0.7,0.4,1c0.9,1.8,2.7,3,4.8,3c2.9,0,5.3-2.4,5.3-5.4C28.5,18,28.4,17.3,28.2,16.7z M14,19.8
	c-0.5,1.4-1.8,2.3-3.2,2.3c-1.9,0-3.4-1.6-3.4-3.5c0-0.3,0-0.7,0.1-1l0,0c0-0.1,0.1-0.2,0.1-0.2l0,0c0.5-1.4,1.8-2.3,3.2-2.3l0,0
	c1.4,0,2.7,0.9,3.2,2.3c0.1,0.4,0.2,0.8,0.2,1.2C14.2,19,14.2,19.4,14,19.8z M26.6,18.7L26.6,18.7c0,0.1,0,0.1,0,0.1l0,0
	c-0.1,1-0.5,1.9-1.2,2.5c-0.6,0.5-1.4,0.8-2.2,0.8c-1.4,0-2.7-0.9-3.2-2.3c-0.1-0.4-0.2-0.8-0.2-1.2c0-0.4,0.1-0.8,0.2-1.2
	c0.5-1.4,1.8-2.3,3.2-2.3c0,0,0.1,0,0.1,0c1.4,0.1,2.6,0.9,3.1,2.3l0,0c0,0,0,0.1,0.1,0.2l0,0C26.6,17.9,26.6,18.3,26.6,18.7
	C26.6,18.6,26.6,18.6,26.6,18.7z"/>
</svg>
