<?xml version="1.0" encoding="utf-8"?>
<!-- Generator: Adobe Illustrator 20.1.0, SVG Export Plug-In . SVG Version: 6.00 Build 0)  -->
<svg version="1.1" id="Слой_1" xmlns="http://www.w3.org/2000/svg" xmlns:xlink="http://www.w3.org/1999/xlink" x="0px" y="0px"
	 viewBox="0 0 17 11" style="enable-background:new 0 0 17 11;" xml:space="preserve">
<style type="text/css">
	.st0{fill:#DA3C2C;}
</style>
<g>
	<path class="st0" d="M10.9,4.5H8.7l0,0H5.5v2h3.1C8.2,7.9,7,8.8,5.5,8.8c-1.8,0-3.3-1.5-3.3-3.3s1.5-3.3,3.3-3.3
		c0.9,0,1.7,0.3,2.3,0.9l1.5-1.5C8.3,0.6,7,0,5.5,0C2.5,0,0,2.5,0,5.5S2.5,11,5.5,11S11,8.5,11,5.5C11,5.2,11,4.8,10.9,4.5z"/>
	<polygon class="st0" points="17,4.5 15.4,4.5 15.4,2.8 14,2.8 14,4.5 12.4,4.5 12.4,5.8 14,5.8 14,7.4 15.4,7.4 15.4,5.8 17,5.8 	
		"/>
</g>
</svg>
