<?xml version="1.0" encoding="utf-8"?>
<!-- Generator: Adobe Illustrator 20.1.0, SVG Export Plug-In . SVG Version: 6.00 Build 0)  -->
<svg version="1.1" id="Слой_1" xmlns="http://www.w3.org/2000/svg" xmlns:xlink="http://www.w3.org/1999/xlink" x="0px" y="0px"
	 viewBox="0 0 18 10" style="enable-background:new 0 0 18 10;" xml:space="preserve">
<style type="text/css">
	.st0{fill:#5B7FA5;}
</style>
<path class="st0" d="M17.2,10h-2.4c0,0-0.5,0.1-1.2-0.4c-0.9-0.6-1.7-2.2-2.4-2c-0.7,0.2-0.6,1.6-0.6,1.6s0,0.3-0.1,0.5
	C10.2,9.9,9.9,10,9.9,10H8.8c0,0-2.4,0.1-4.5-2C2.1,5.7,0,1.1,0,1.1s-0.1-0.3,0-0.4c0.1-0.2,0.5-0.2,0.5-0.2h2.6c0,0,0.2,0,0.4,0.2
	C3.6,0.8,3.7,1,3.7,1s0.4,1,1,1.9c1.1,1.8,1.6,2.2,1.9,2C7.1,4.6,7,2.3,7,2.3s0-0.8-0.3-1.2C6.6,0.8,6.2,0.7,6,0.7
	c-0.1,0,0.1-0.3,0.4-0.5C6.9,0,7.7,0,8.7,0c0.8,0,1,0.1,1.3,0.1c0.9,0.2,0.6,1,0.6,2.9c0,0.6-0.1,1.5,0.3,1.8c0.2,0.1,0.7,0,1.9-2
	c0.6-0.9,1-2.1,1-2.1s0.1-0.2,0.2-0.3c0.1-0.1,0.3-0.1,0.3-0.1H17c0,0,0.8-0.1,0.9,0.3s-0.3,1.3-1.4,2.7c-1.8,2.4-2,2.1-0.5,3.5
	c1.4,1.3,1.7,1.9,1.8,2C18.4,9.9,17.2,10,17.2,10"/>
</svg>
