<?xml version="1.0" encoding="utf-8"?>
<!-- Generator: Adobe Illustrator 20.1.0, SVG Export Plug-In . SVG Version: 6.00 Build 0)  -->
<svg version="1.1" id="Слой_1" xmlns="http://www.w3.org/2000/svg" xmlns:xlink="http://www.w3.org/1999/xlink" x="0px" y="0px"
	 viewBox="0 0 11 18" style="enable-background:new 0 0 11 18;" xml:space="preserve">
<style type="text/css">
	.st0{fill:#FFFFFF;}
</style>
<path class="st0" d="M10.8,9.7c-0.3-0.5-1-0.9-1.9-0.2c-1.3,1-3.4,1-3.4,1s-2.1,0-3.4-1c-1-0.7-1.7-0.3-1.9,0.2
	c-0.5,0.9,0.1,1.3,1.2,2.1c1,0.6,2.4,0.9,3.2,0.9l-0.7,0.7c-1,1-2,2-2.7,2.7c-0.4,0.4-0.4,1.1,0,1.5l0.1,0.1C1.5,17.9,1.8,18,2,18h0
	c0.3,0,0.5-0.1,0.7-0.3L5.5,15c1,1,2,2,2.7,2.7c0.4,0.4,1.1,0.4,1.5,0l0.1-0.1c0.4-0.4,0.4-1.1,0-1.5l-2.7-2.7l-0.7-0.7
	c0.9-0.1,2.2-0.3,3.2-0.9C10.8,11,11.3,10.6,10.8,9.7L10.8,9.7z M5.5,2.3c1.3,0,2.3,1,2.3,2.2c0,1.2-1,2.2-2.3,2.2
	c-1.3,0-2.3-1-2.3-2.2C3.2,3.3,4.2,2.3,5.5,2.3L5.5,2.3z M5.5,9.1c2.6,0,4.6-2,4.6-4.6C10.1,2,8.1,0,5.5,0S0.9,2,0.9,4.6
	C0.9,7.1,2.9,9.1,5.5,9.1L5.5,9.1z"/>
</svg>
