<?xml version="1.0" encoding="utf-8"?>
<!-- Generator: Adobe Illustrator 20.1.0, SVG Export Plug-In . SVG Version: 6.00 Build 0)  -->
<svg version="1.1" id="Слой_1" xmlns="http://www.w3.org/2000/svg" xmlns:xlink="http://www.w3.org/1999/xlink" x="0px" y="0px"
	 viewBox="0 0 20 20" style="enable-background:new 0 0 20 20;" xml:space="preserve">
<style type="text/css">
	.st0{fill:#FFFFFF;}
</style>
<path class="st0" d="M20,18.3l-5.2-5.2c1-1.4,1.6-3,1.6-4.9c0-4.5-3.7-8.2-8.2-8.2C3.7,0,0,3.7,0,8.2c0,4.5,3.7,8.2,8.2,8.2
	c1.8,0,3.5-0.6,4.9-1.6l5.2,5.2l1.8,0L20,18.3z M8.2,14C5,14,2.4,11.4,2.4,8.2C2.4,5,5,2.4,8.2,2.4C11.4,2.4,14,5,14,8.2
	C14,11.4,11.4,14,8.2,14z"/>
</svg>
