<?xml version="1.0" encoding="utf-8"?>
<!-- Generator: Adobe Illustrator 20.1.0, SVG Export Plug-In . SVG Version: 6.00 Build 0)  -->
<svg version="1.1" id="Слой_1" xmlns="http://www.w3.org/2000/svg" xmlns:xlink="http://www.w3.org/1999/xlink" x="0px" y="0px"
	 viewBox="0 0 18 18" style="enable-background:new 0 0 18 18;" xml:space="preserve">
<style type="text/css">
	.st0{fill:#9B9B9B;}
</style>
<path class="st0" d="M18,16.5l-4.7-4.7c0.9-1.2,1.5-2.7,1.5-4.4c0-4.1-3.3-7.4-7.4-7.4C3.3,0,0,3.3,0,7.4c0,4.1,3.3,7.4,7.4,7.4
	c1.6,0,3.2-0.5,4.4-1.5l4.6,4.6l1.6,0L18,16.5z M7.4,12.6c-2.9,0-5.2-2.3-5.2-5.2c0-2.9,2.3-5.2,5.2-5.2c2.9,0,5.2,2.3,5.2,5.2
	C12.6,10.3,10.2,12.6,7.4,12.6z"/>
</svg>
